<?xml version="1.0" encoding="UTF-8"?>
<!DOCTYPE svg PUBLIC "-//W3C//DTD SVG 1.1//EN" "http://www.w3.org/Graphics/SVG/1.1/DTD/svg11.dtd">
<!-- Creator: CorelDRAW -->
<svg xmlns="http://www.w3.org/2000/svg" xml:space="preserve" width="79.9289mm" height="116.569mm" version="1.1" style="shape-rendering:geometricPrecision; text-rendering:geometricPrecision; image-rendering:optimizeQuality; fill-rule:evenodd; clip-rule:evenodd"
viewBox="0 0 984.82 1436.27"
 xmlns:xlink="http://www.w3.org/1999/xlink"
 xmlns:xodm="http://www.corel.com/coreldraw/odm/2003">
 <defs>
  <style type="text/css">
   <![CDATA[
    .str0 {stroke:#373435;stroke-width:0.94;stroke-miterlimit:22.9256}
    .fil1 {fill:none}
    .fil2 {fill:#FEFEFE}
    .fil0 {fill:#373435}
    .fil4 {fill:#FFF212}
    .fil5 {fill:#EC268F}
    .fil3 {fill:#00AFEF}
   ]]>
  </style>
 </defs>
 <g id="Camada_x0020_1">
  <metadata id="CorelCorpID_0Corel-Layer"/>
  <path class="fil0" d="M984.25 907.78l0 0.07c3.8,128.96 -79.92,324.71 -183.79,403.12l-0.15 0.12 -0.15 0.13c-86.39,76.99 -194.53,118.88 -309.78,124.53l-0.82 0.05 -0.84 -0.03c-114.06,-4 -218.97,-42.97 -304.97,-118.62 -140.93,-123.96 -209.68,-319.19 -174.02,-503.87 20.63,-106.82 72.2,-205.17 132.13,-294.92 109.67,-164.25 216.53,-330.37 327.75,-493.58l16.33 -23.96 16.28 23.99c111.96,165 222.88,330.75 338.42,493.29l0.19 0.27 0.18 0.28c79.11,119.65 144.11,241.72 143.24,389.05l0 0.07z"/>
  <path class="fil1 str0" d="M984.25 907.78l0 0.07c3.8,128.96 -79.92,324.71 -183.79,403.12l-0.15 0.12 -0.15 0.13c-86.39,76.99 -194.53,118.88 -309.78,124.53l-0.82 0.05 -0.84 -0.03c-114.06,-4 -218.97,-42.97 -304.97,-118.62 -140.93,-123.96 -209.68,-319.19 -174.02,-503.87 20.63,-106.82 72.2,-205.17 132.13,-294.92 109.67,-164.25 216.53,-330.37 327.75,-493.58l16.33 -23.96 16.28 23.99c111.96,165 222.88,330.75 338.42,493.29l0.19 0.27 0.18 0.28c79.11,119.65 144.11,241.72 143.24,389.05l0 0.07z"/>
  <path class="fil2" d="M489.41 1416.07c110.75,-5.44 214.57,-45.58 297.63,-119.57l0.75 -0.66 0.8 -0.61c98.83,-74.58 179.35,-264.4 175.95,-386.82l-0.01 -0.42 0 -0.42c0.88,-143.02 -63.17,-261.89 -139.96,-378.06 -115.61,-162.67 -226.62,-328.52 -338.67,-493.63 -111.19,163.15 -218.02,329.21 -327.65,493.41 -58.38,87.44 -109.06,183.64 -129.17,287.71 -34.4,178.15 31.77,365.77 167.68,485.33 82.57,72.63 183.11,109.87 292.64,113.72z"/>
  <path class="fil1 str0" d="M489.41 1416.07c110.75,-5.44 214.57,-45.58 297.63,-119.57l0.75 -0.66 0.8 -0.61c98.83,-74.58 179.35,-264.4 175.95,-386.82l-0.01 -0.42 0 -0.42c0.88,-143.02 -63.17,-261.89 -139.96,-378.06 -115.61,-162.67 -226.62,-328.52 -338.67,-493.63 -111.19,163.15 -218.02,329.21 -327.65,493.41 -58.38,87.44 -109.06,183.64 -129.17,287.71 -34.4,178.15 31.77,365.77 167.68,485.33 82.57,72.63 183.11,109.87 292.64,113.72z"/>
  <path class="fil3" d="M225.64 1274.77c99.12,-3.29 192.81,-29.81 278.87,-77.57l0.28 -0.01c83.78,44.61 174.67,69.18 269.57,72.34 -76.8,68.53 -174.04,106.19 -276.46,111.03 -102.55,-3.42 -196.13,-38.46 -272.27,-105.79z"/>
  <path class="fil4" d="M188.01 564.16c-52.66,79.92 -99.26,166.94 -117.05,261.85 -25.8,137.97 15.53,290.59 108.01,400.79 95.47,4.39 192.3,-15.51 277.77,-58.35 -203.51,-135.47 -303.72,-371.46 -268.73,-604.3z"/>
  <path class="fil0" d="M504.16 1141.92c234.22,-146.27 329.75,-442.36 223.45,-697.6 -18.29,-25.79 -32.22,-45.8 -44.99,-64.64 -28.75,-42.42 -57.47,-84.85 -86.16,-127.32 -33.87,-50.06 -67.77,-100.16 -101.72,-150.19 -77.74,113.44 -148.68,228.93 -225.12,342.97 -102.95,254.42 -2.45,554.57 234.55,696.77z"/>
  <path class="fil5" d="M810.89 564.13c36.64,229.92 -59.27,466.3 -258.85,603.47 83.62,39.92 176.16,58.01 268.77,53.94 48.87,-58.39 84.92,-130.92 104.48,-210.44 41.79,-169.19 -22.66,-307.99 -114.4,-446.97z"/>
 </g>
</svg>
